<svg width="70" height="70" viewBox="0 0 70 70" xmlns="http://www.w3.org/2000/svg" xmlns:xlink="http://www.w3.org/1999/xlink"><title>Banking</title><defs><path id="a" d="M0 .034h69.967v69.965H0z"/></defs><g fill="none" fill-rule="evenodd"><g transform="translate(0 -.033)"><mask id="b" fill="#fff"><use xlink:href="#a"/></mask><path d="M69.967 35.017c0 19.32-15.663 34.982-34.983 34.982C15.662 70 0 54.338 0 35.017 0 15.695 15.662.032 34.984.032c19.32 0 34.983 15.662 34.983 34.983" fill="#FFF" mask="url(#b)"/></g><path fill="#646F79" d="M21.015 47.615h27.936V28.633H21.015z"/><path fill="#E0E4E6" d="M34.984 11.8l-21.49 8.506v8.327h42.979v-8.327z"/><path fill="#B0CCFA" d="M13.494 54.69h42.978v-3.583H13.494z"/><path fill="#E0E4E6" d="M15.464 51.108h38.949v-3.582H15.464z"/><path fill="#ACB3BA" d="M46.086 31.677h5.82v-3.044h-5.82zm0 15.938h5.82v-3.044h-5.82z"/><path fill="#F2F2F2" d="M46.713 44.571H51.1V31.677h-4.387z"/><path fill="#ACB3BA" d="M36.685 31.677h5.82v-3.044h-5.82zm0 15.938h5.82v-3.044h-5.82z"/><path fill="#F2F2F2" d="M37.311 44.571h4.388V31.677h-4.388z"/><path fill="#ACB3BA" d="M18.15 31.677h5.82v-3.044h-5.82zm0 15.938h5.82v-3.044h-5.82z"/><path fill="#F2F2F2" d="M18.777 44.571h4.387V31.677h-4.387z"/><path fill="#ACB3BA" d="M27.462 31.677h5.82v-3.044h-5.82zm0 15.938h5.82v-3.044h-5.82z"/><path fill="#F2F2F2" d="M28.179 44.571h4.387V31.677h-4.387z"/><path fill="#A0ABB5" d="M18.15 29.708h5.82v-1.075h-5.82zm9.312 0h5.82v-1.075h-5.82zm9.223 0h5.82v-1.075h-5.82zm9.401 0h5.82v-1.075h-5.82z"/><path d="M34.984 16.803a4.338 4.338 0 1 1 0 8.677 4.339 4.339 0 0 1 0-8.677" fill="#ACB3BA"/><path d="M36.44 20.103a.102.102 0 0 0-.076-.03h-.566a1.142 1.142 0 0 0-.212-.476h.771a.105.105 0 0 0 .076-.03c.02-.02.03-.046.03-.076v-.338a.102.102 0 0 0-.106-.106h-2.754a.105.105 0 0 0-.077.03.102.102 0 0 0-.029.076v.44a.1.1 0 0 0 .031.074.103.103 0 0 0 .075.032h.48c.465 0 .761.125.887.374h-1.367a.105.105 0 0 0-.077.03.102.102 0 0 0-.029.076v.338a.102.102 0 0 0 .106.106h1.413a.644.644 0 0 1-.339.414c-.178.094-.412.142-.704.142h-.37a.102.102 0 0 0-.075.03.102.102 0 0 0-.03.076v.42c0 .029.008.053.028.073.424.45.974 1.08 1.65 1.89a.1.1 0 0 0 .082.04h.645c.047 0 .08-.02.097-.06.022-.04.017-.076-.014-.112a35.994 35.994 0 0 0-1.519-1.774c.375-.044.68-.166.913-.365.234-.198.377-.457.428-.774h.556a.102.102 0 0 0 .106-.106v-.338a.102.102 0 0 0-.03-.076" fill="#FFF"/></g></svg>