<svg width="17" height="20" viewBox="0 0 17 20" class="mx-2"><title>progress</title><g fill="none" fill-rule="evenodd"><path d="M15.987.87H.888A.88.88 0 0 0 0 1.74v17.39c0 .48.397.87.888.87h15.099a.88.88 0 0 0 .888-.87V1.74a.878.878 0 0 0-.888-.87z" fill="#4788F4"></path><path d="M14.21 17.826H2.665a.44.44 0 0 1-.444-.435V3.478a.44.44 0 0 1 .444-.435h11.547a.44.44 0 0 1 .444.435v13.913a.44.44 0 0 1-.444.435z" fill="#F6F8F9"></path><path d="M11.546 10H5.33a.44.44 0 0 1-.444-.435.44.44 0 0 1 .444-.435h6.217a.44.44 0 0 1 .444.435.44.44 0 0 1-.444.435zm0-2.609H5.33a.44.44 0 0 1-.444-.434.44.44 0 0 1 .444-.435h6.217a.44.44 0 0 1 .444.435.44.44 0 0 1-.444.434zm0 5.218H5.33a.44.44 0 0 1-.444-.435.44.44 0 0 1 .444-.435h6.217a.44.44 0 0 1 .444.435.44.44 0 0 1-.444.435zM7.55 15.217H5.328a.44.44 0 0 1-.444-.434.44.44 0 0 1 .444-.435h2.22a.44.44 0 0 1 .444.435.44.44 0 0 1-.444.434z" fill-opacity=".5" fill="#86A1AE"></path><path d="M10.214 1.74C10.214.778 9.418 0 8.437 0c-.98 0-1.776.779-1.776 1.74H5.33a.44.44 0 0 0-.444.434v1.739c0 .24.199.435.444.435h6.217a.44.44 0 0 0 .444-.435v-1.74a.44.44 0 0 0-.444-.434h-1.332z" fill="#FFD13C"></path><ellipse fill="#FF724F" cx="8.438" cy="1.739" rx="1" ry="1"></ellipse></g></svg>